<svg width="32" height="32" viewBox="0 0 32 32" xmlns="http://www.w3.org/2000/svg">
  <path d="M17.7 5.5L20.3 6.4L22.5 4.8L24.8 7.1L23.2 9.3L24.2 11.9L27.1 12.9V15.8L24.2 16.8L23.2 19.4L24.8 21.6L22.5 23.9L20.3 22.3L17.7 23.2L16.7 26.1H13.8L12.8 23.2L10.2 22.3L8 23.9L5.7 21.6L7.3 19.4L6.3 16.8L3.4 15.8V12.9L6.3 11.9L7.3 9.3L5.7 7.1L8 4.8L10.2 6.4L12.8 5.5L13.8 2.6H16.7L17.7 5.5Z" fill="#6FC3FF"/>
  <circle cx="15.2" cy="14.4" r="5.2" fill="#D8ECFF"/>
  <circle cx="15.2" cy="14.4" r="2.6" fill="#6FC3FF"/>
</svg>
