<svg width="32" height="32" viewBox="0 0 32 32" xmlns="http://www.w3.org/2000/svg">
  <rect x="3" y="3" width="26" height="26" rx="6" fill="#222831"/>
  <path d="M16 8.5L18 9.2L19.6 8L21.2 9.6L20 11.2L20.8 13.2L23 14V16.2L20.8 17L20 19L21.2 20.6L19.6 22.2L18 21L16 21.7L15.2 24H13L12.2 21.7L10.2 21L8.6 22.2L7 20.6L8.2 19L7.4 17L5.2 16.2V14L7.4 13.2L8.2 11.2L7 9.6L8.6 8L10.2 9.2L12.2 8.5L13 6.2H15.2L16 8.5Z" fill="#8EC5FF"/>
  <circle cx="14.1" cy="15.1" r="3.2" fill="#1E2A3A"/>
  <circle cx="14.1" cy="15.1" r="1.6" fill="#7CE0B1"/>
</svg>
